<svg width="55" height="59" viewBox="0 0 55 59" fill="none" xmlns="http://www.w3.org/2000/svg">
<path d="M39.9897 21.4351H40.0097M40.0097 16.0243V9.2635M16.2541 56.5H9.29393C8.48641 56.5 7.67389 56.3758 6.93137 56.0329C4.51631 54.9124 3.28878 53.4301 2.71877 52.504C2.56407 52.2475 2.48806 51.9449 2.50152 51.6391C2.51499 51.3333 2.61723 51.0398 2.79377 50.8003C5.59384 46.7827 12.084 44.3581 16.2541 44.3581M16.2666 56.5H23.2243C24.0343 56.5 24.8443 56.3758 25.5868 56.0329C28.0044 54.9124 29.2294 53.4301 29.8019 52.504C29.9566 52.2475 30.0326 51.9449 30.0192 51.6391C30.0057 51.3333 29.9035 51.0398 29.7269 50.8003C26.9269 46.7827 20.4367 44.3581 16.2666 44.3581M52.5 15.4384C52.5 22.5826 46.8999 28.3768 39.9897 28.3768C39.1763 28.3768 38.3697 28.2958 37.5696 28.1338C36.9946 28.0177 36.7096 27.961 36.5071 27.9934C36.3071 28.0258 36.0221 28.1878 35.4571 28.5172C33.8387 29.449 31.976 29.7621 30.1719 29.4055C30.857 28.4929 31.322 27.3994 31.5295 26.2276C31.6545 25.5121 31.3445 24.8155 30.8795 24.3052C28.7082 21.9492 27.4862 18.7625 27.4794 15.4384C27.4794 8.2942 33.0795 2.5 39.9897 2.5C46.8999 2.5 52.5 8.2942 52.5 15.4384ZM23.2118 30.2803C23.2091 32.2672 22.4761 34.1717 21.1737 35.5751C19.8714 36.9786 18.1064 37.7661 16.2666 37.7647C15.3552 37.7661 14.4525 37.5737 13.61 37.1983C12.7674 36.8229 12.0016 36.272 11.3562 35.577C10.7108 34.8821 10.1985 34.0566 9.84855 33.1478C9.49856 32.239 9.31774 31.2646 9.31643 30.2803C9.31742 29.2958 9.49799 28.3211 9.84783 27.412C10.1977 26.5029 10.7099 25.6771 11.3553 24.9818C12.0008 24.2865 12.7667 23.7354 13.6094 23.3599C14.4521 22.9843 15.355 22.7918 16.2666 22.7932C18.1068 22.7918 19.8722 23.5797 21.1746 24.9837C22.477 26.3877 23.2098 28.2929 23.2118 30.2803Z" stroke="#E2E2E2" stroke-width="5" stroke-linecap="round" stroke-linejoin="round"/>
</svg>
