<svg width="51" height="51" viewBox="0 0 51 51" fill="none" xmlns="http://www.w3.org/2000/svg">
<path d="M32.1111 0C31.1092 0 30.1483 0.429856 29.4398 1.195C28.7313 1.96015 28.3333 2.99792 28.3333 4.08V12.24C28.3333 13.3221 28.7313 14.3598 29.4398 15.125C30.1483 15.8901 31.1092 16.32 32.1111 16.32V22.44L38.9111 16.32H47.2222C48.2242 16.32 49.185 15.8901 49.8935 15.125C50.602 14.3598 51 13.3221 51 12.24V4.08C51 2.99792 50.602 1.96015 49.8935 1.195C49.185 0.429856 48.2242 0 47.2222 0H32.1111ZM15.1111 10.2C13.1073 10.2 11.1855 11.0597 9.76853 12.59C8.35158 14.1203 7.55556 16.1958 7.55556 18.36C7.55556 20.5242 8.35158 22.5997 9.76853 24.13C11.1855 25.6603 13.1073 26.52 15.1111 26.52C17.115 26.52 19.0368 25.6603 20.4537 24.13C21.8706 22.5997 22.6667 20.5242 22.6667 18.36C22.6667 16.1958 21.8706 14.1203 20.4537 12.59C19.0368 11.0597 17.115 10.2 15.1111 10.2ZM24.5556 30.6H5.66667C4.16377 30.6 2.72243 31.2448 1.65973 32.3925C0.597022 33.5402 0 35.0969 0 36.72C0 41.2733 1.734 44.9208 4.57867 47.3892C7.378 49.8168 11.1331 51 15.1111 51C19.0891 51 22.8442 49.8168 25.6436 47.3892C28.4844 44.9208 30.2222 41.2733 30.2222 36.72C30.2222 35.0969 29.6252 33.5402 28.5625 32.3925C27.4998 31.2448 26.0584 30.6 24.5556 30.6Z" fill="#E2E2E2"/>
</svg>
