<svg width="73" height="66" viewBox="0 0 73 66" fill="none" xmlns="http://www.w3.org/2000/svg">
<g opacity="0.5">
<path d="M48.3782 41.2762C46.4275 41.2762 44.769 40.5976 43.4029 39.2403C42.0347 37.883 41.3507 36.2342 41.3507 34.2941C41.3507 32.3539 42.0347 30.7052 43.4029 29.3479C44.7711 27.9906 46.4295 27.313 48.3782 27.315C50.3269 27.317 51.9864 27.9956 53.3566 29.3509C54.7227 30.7102 55.4058 32.359 55.4058 34.2971C55.4058 36.2352 54.7217 37.884 53.3535 39.2433C51.9854 40.6026 50.3269 41.2782 48.3782 41.2762ZM32.2161 59.1369V52.4604C32.2161 51.7666 32.3825 51.1141 32.7154 50.5031C33.0483 49.894 33.5152 49.4079 34.116 49.0449C35.5248 48.2039 37.0107 47.5081 38.5737 46.9575C40.1368 46.4029 41.7343 45.9935 43.3664 45.7293L48.3782 52.2123L53.3322 45.7263C54.9805 45.9905 56.5841 46.3989 58.1431 46.9515C59.7061 47.5061 61.2002 48.2029 62.6252 49.0419C63.226 49.4029 63.6858 49.8849 64.0045 50.4879C64.3232 51.091 64.5018 51.7283 64.5404 52.3998V59.1369H32.2161ZM23.7848 52.4604V54.4812H13.7428C12.3625 54.4812 11.1922 54.0022 10.2321 53.0442C9.27398 52.0903 8.79492 50.9417 8.79492 49.5985V10.9638C8.79492 9.62062 9.27703 8.47105 10.2412 7.51509C11.2054 6.55913 12.3625 6.08014 13.7124 6.07812H52.5954C53.9473 6.07812 55.1043 6.55711 56.0665 7.51509C57.0287 8.47307 57.5108 9.62264 57.5128 10.9638V22.1358C56.2137 21.0992 54.7988 20.3066 53.2683 19.758C51.7377 19.2095 50.1077 18.9352 48.3782 18.9352C48.1062 18.9352 47.8525 18.9453 47.617 18.9654C47.3815 18.9856 47.1278 19.0138 46.8558 19.0501V17.3651H19.452V20.3903H42.054C40.1804 21.197 38.5545 22.3173 37.1761 23.7513C35.7978 25.1872 34.7321 26.8592 33.979 28.7671H19.452V31.7922H33.2148C33.0179 33.0447 32.9651 34.3011 33.0564 35.5616C33.1478 36.8221 33.3964 38.0675 33.8024 39.2977C33.4533 39.453 33.1123 39.5982 32.7794 39.7334C32.4464 39.8685 32.1237 40.0137 31.8111 40.169H19.452V43.1942H27.9654C26.6358 44.3538 25.6067 45.7535 24.8779 47.3932C24.1492 49.0328 23.7848 50.7209 23.7848 52.4573" fill="#C6C6C6"/>
</g>
</svg>
