<svg width="2" height="11" viewBox="0 0 2 11" fill="none" xmlns="http://www.w3.org/2000/svg">
<path d="M0.961594 8.97488C1.21662 8.97488 1.46121 9.07619 1.64154 9.25652C1.82188 9.43686 1.92319 9.68144 1.92319 9.93647C1.92319 10.1915 1.82188 10.4361 1.64154 10.6164C1.46121 10.7968 1.21662 10.8981 0.961594 10.8981C0.706564 10.8981 0.461978 10.7968 0.281644 10.6164C0.10131 10.4361 0 10.1915 0 9.93647C0 9.68144 0.10131 9.43686 0.281644 9.25652C0.461978 9.07619 0.706564 8.97488 0.961594 8.97488ZM0.961594 4.48744C1.21662 4.48744 1.46121 4.58875 1.64154 4.76908C1.82188 4.94942 1.92319 5.194 1.92319 5.44903C1.92319 5.70406 1.82188 5.94865 1.64154 6.12898C1.46121 6.30932 1.21662 6.41063 0.961594 6.41063C0.706564 6.41063 0.461978 6.30932 0.281644 6.12898C0.10131 5.94865 0 5.70406 0 5.44903C0 5.194 0.10131 4.94942 0.281644 4.76908C0.461978 4.58875 0.706564 4.48744 0.961594 4.48744ZM0.961594 0C1.21662 0 1.46121 0.101311 1.64154 0.281644C1.82188 0.461978 1.92319 0.706564 1.92319 0.961594C1.92319 1.21662 1.82188 1.46121 1.64154 1.64154C1.46121 1.82188 1.21662 1.92319 0.961594 1.92319C0.706564 1.92319 0.461978 1.82188 0.281644 1.64154C0.10131 1.46121 0 1.21662 0 0.961594C0 0.706564 0.10131 0.461978 0.281644 0.281644C0.461978 0.101311 0.706564 0 0.961594 0Z" fill="#667085"/>
</svg>
